# xmcd
#
# Track frame offsets:
#	150
#	18034
#	39977
#	60154
#	76892
#	92985
#	110771
#	127317
#	142338
#	163704
#	175512
#	191459
#	212567
#	229968
#	255015
#
# Disc length: 3500 seconds
#
# Revision: 1
# Processed by: cddbd v1.5.2PL0 Copyright (c) Steve Scherf et al.
# Submitted via: audiograbber 1.83.01
#
DISCID=c10daa0f
DTITLE=J. Blackwell - Like A Place I Havent Seen
DYEAR=2006
DGENRE=Country
TTITLE0=Like A Place I Haven´t Seen
TTITLE1=Little Lover Games
TTITLE2=Burning
TTITLE3=I´d Like To Fall In Love One More Time
TTITLE4=This Thing Called Love
TTITLE5=Let´s Live 4 Life To Remember
TTITLE6=Mississippi River Dream
TTITLE7=Missing You
TTITLE8=King Of Pain
TTITLE9=Good Morning Sunshine
TTITLE10=Hotter Than A June Bug
TTITLE11=The Only Angel In Black
TTITLE12=A Little House South Of Town
TTITLE13=hen The Orders Come Down
TTITLE14=When The Orders Come Down
EXTD=
EXTT0=
EXTT1=
EXTT2=
EXTT3=
EXTT4=
EXTT5=
EXTT6=
EXTT7=
EXTT8=
EXTT9=
EXTT10=
EXTT11=
EXTT12=
EXTT13=
EXTT14=
PLAYORDER=
